<?xml version="1.0" ?><svg viewBox="0 0 24 24" xmlns="http://www.w3.org/2000/svg"><title/><path d="M22.5,3H19.18451A2.1603,2.1603,0,0,0,18.876,1.37646,1.10823,1.10823,0,0,0,18,1a8.04422,8.04422,0,0,0-4.23108,2h-3.4176A8.11785,8.11785,0,0,0,6,1a1.10823,1.10823,0,0,0-.876.37646A2.1603,2.1603,0,0,0,4.81549,3H1.5a.49971.49971,0,0,0-.5.5v4a.49971.49971,0,0,0,.5.5H2V22.5a.49971.49971,0,0,0,.5.5h19a.49971.49971,0,0,0,.5-.5V8h.5a.49971.49971,0,0,0,.5-.5v-4A.49971.49971,0,0,0,22.5,3ZM14.67041,8.69629l-.51221-.17041a.49916.49916,0,0,0-.63232.31592l-.05371.16015-.62885-1.67737-.00006-.00036-.16858-.44953a1.98868,1.98868,0,0,0,.63111-.372c.17346.08648.40362.19885.67462.3258ZM10.06378,6.8714c.27765-.12268.51441-.23169.69415-.31616a1.98589,1.98589,0,0,0,.56739.31945l-.16858.44953-.00006.00036L10.52783,9.002l-.05371-.16015a.49976.49976,0,0,0-.63232-.31592l-.4878.1626ZM13,5a1,1,0,1,1-1-1A1.0013,1.0013,0,0,1,13,5Zm-2,5.59113L11.97168,8h.05664L13,10.59113V22H11Zm7.11816-8.56232c.18506.21533.04981,1.1123-.02246,1.59424A6.60722,6.60722,0,0,0,18,4.5l.00488.32422c.01123.56787.03565,1.75-.30566,2.09863-.29309.29706-2.44483-.58307-3.82233-1.25537a1.91941,1.91941,0,0,0-.02545-1.41687C15.213,2.98987,17.01019,2,18,2A.16464.16464,0,0,1,18.11816,2.02881Zm-12.23632,0A.16464.16464,0,0,1,6,2a7.79634,7.79634,0,0,1,4.18207,2.17676,1.95042,1.95042,0,0,0-.03748,1.55981c-1.42016.6499-3.55627,1.4773-3.84381,1.18628-.34131-.34863-.31689-1.53076-.30566-2.09863L6,4.5a6.60722,6.60722,0,0,0-.0957-.87695C5.832,3.14111,5.69678,2.24414,5.88184,2.02881ZM2,4H4.94873A3.80077,3.80077,0,0,1,5,4.5l-.00439.30371A6.38569,6.38569,0,0,0,5.21448,7H2ZM3,8H8.549L8.03418,9.31787a.49991.49991,0,0,0,.624.65625l1.02539-.3418L10,10.58063V22H3ZM21,22H14V10.58063l.31641-.94831,1.02539.3418a.5.5,0,0,0,.62744-.64746L15.47937,8H21ZM22,7H18.78552a6.38569,6.38569,0,0,0,.21887-2.19629L19,4.5a3.80077,3.80077,0,0,1,.05127-.5H22Z"/></svg>